<svg width="316" height="51" viewBox="0 0 316 51" fill="none" xmlns="http://www.w3.org/2000/svg">
<path d="M11.446 14.97V23.774H25.644V31.958H11.446V41.506H27.504V50H0.844V6.476H27.504V14.97H11.446ZM32.279 32.64C32.279 29.0853 32.9403 25.9647 34.263 23.278C35.627 20.5913 37.4663 18.5247 39.781 17.078C42.0956 15.6313 44.679 14.908 47.531 14.908C49.8043 14.908 51.871 15.3833 53.731 16.334C55.6323 17.2847 57.1203 18.566 58.195 20.178V4.12H68.797V50H58.195V45.04C57.203 46.6933 55.777 48.016 53.917 49.008C52.0983 50 49.9696 50.496 47.531 50.496C44.679 50.496 42.0956 49.7727 39.781 48.326C37.4663 46.838 35.627 44.7507 34.263 42.064C32.9403 39.336 32.279 36.1947 32.279 32.64ZM58.195 32.702C58.195 30.0567 57.451 27.9693 55.963 26.44C54.5163 24.9107 52.739 24.146 50.631 24.146C48.523 24.146 46.725 24.9107 45.237 26.44C43.7903 27.928 43.067 29.9947 43.067 32.64C43.067 35.2853 43.7903 37.3933 45.237 38.964C46.725 40.4933 48.523 41.258 50.631 41.258C52.739 41.258 54.5163 40.4933 55.963 38.964C57.451 37.4347 58.195 35.3473 58.195 32.702ZM110.629 15.404V50H100.027V45.288C98.9524 46.8173 97.485 48.0573 95.625 49.008C93.8064 49.9173 91.781 50.372 89.549 50.372C86.9037 50.372 84.5684 49.7933 82.543 48.636C80.5177 47.4373 78.947 45.722 77.831 43.49C76.715 41.258 76.157 38.6333 76.157 35.616V15.404H86.697V34.19C86.697 36.5047 87.2964 38.3027 88.495 39.584C89.6937 40.8653 91.3057 41.506 93.331 41.506C95.3977 41.506 97.0304 40.8653 98.229 39.584C99.4277 38.3027 100.027 36.5047 100.027 34.19V15.404H110.629ZM116.136 32.702C116.136 29.106 116.86 25.9647 118.306 23.278C119.794 20.5913 121.84 18.5247 124.444 17.078C127.09 15.6313 130.107 14.908 133.496 14.908C137.836 14.908 141.453 16.0447 144.346 18.318C147.281 20.5913 149.203 23.7947 150.112 27.928H138.828C137.878 25.2827 136.038 23.96 133.31 23.96C131.368 23.96 129.818 24.7247 128.66 26.254C127.503 27.742 126.924 29.8913 126.924 32.702C126.924 35.5127 127.503 37.6827 128.66 39.212C129.818 40.7 131.368 41.444 133.31 41.444C136.038 41.444 137.878 40.1213 138.828 37.476H150.112C149.203 41.5267 147.281 44.7093 144.346 47.024C141.412 49.3387 137.795 50.496 133.496 50.496C130.107 50.496 127.09 49.7727 124.444 48.326C121.84 46.8793 119.794 44.8127 118.306 42.126C116.86 39.4393 116.136 36.298 116.136 32.702ZM153.675 32.64C153.675 29.0853 154.337 25.9647 155.659 23.278C157.023 20.5913 158.863 18.5247 161.177 17.078C163.492 15.6313 166.075 14.908 168.927 14.908C171.366 14.908 173.495 15.404 175.313 16.396C177.173 17.388 178.599 18.69 179.591 20.302V15.404H190.193V50H179.591V45.102C178.558 46.714 177.111 48.016 175.251 49.008C173.433 50 171.304 50.496 168.865 50.496C166.055 50.496 163.492 49.7727 161.177 48.326C158.863 46.838 157.023 44.7507 155.659 42.064C154.337 39.336 153.675 36.1947 153.675 32.64ZM179.591 32.702C179.591 30.0567 178.847 27.9693 177.359 26.44C175.913 24.9107 174.135 24.146 172.027 24.146C169.919 24.146 168.121 24.9107 166.633 26.44C165.187 27.928 164.463 29.9947 164.463 32.64C164.463 35.2853 165.187 37.3933 166.633 38.964C168.121 40.4933 169.919 41.258 172.027 41.258C174.135 41.258 175.913 40.4933 177.359 38.964C178.847 37.4347 179.591 35.3473 179.591 32.702ZM217.146 41.01V50H211.752C207.908 50 204.911 49.07 202.762 47.21C200.612 45.3087 199.538 42.2293 199.538 37.972V24.208H195.322V15.404H199.538V6.972H210.14V15.404H217.084V24.208H210.14V38.096C210.14 39.1293 210.388 39.8733 210.884 40.328C211.38 40.7827 212.206 41.01 213.364 41.01H217.146ZM228.383 11.808C226.523 11.808 224.994 11.2707 223.795 10.196C222.638 9.08 222.059 7.716 222.059 6.104C222.059 4.45067 222.638 3.08666 223.795 2.012C224.994 0.895997 226.523 0.337996 228.383 0.337996C230.202 0.337996 231.69 0.895997 232.847 2.012C234.046 3.08666 234.645 4.45067 234.645 6.104C234.645 7.716 234.046 9.08 232.847 10.196C231.69 11.2707 230.202 11.808 228.383 11.808ZM233.653 15.404V50H223.051V15.404H233.653ZM257.084 50.496C253.695 50.496 250.636 49.7727 247.908 48.326C245.222 46.8793 243.093 44.8127 241.522 42.126C239.993 39.4393 239.228 36.298 239.228 32.702C239.228 29.1473 240.014 26.0267 241.584 23.34C243.155 20.612 245.304 18.5247 248.032 17.078C250.76 15.6313 253.819 14.908 257.208 14.908C260.598 14.908 263.656 15.6313 266.384 17.078C269.112 18.5247 271.262 20.612 272.832 23.34C274.403 26.0267 275.188 29.1473 275.188 32.702C275.188 36.2567 274.382 39.398 272.77 42.126C271.2 44.8127 269.03 46.8793 266.26 48.326C263.532 49.7727 260.474 50.496 257.084 50.496ZM257.084 41.32C259.11 41.32 260.825 40.576 262.23 39.088C263.677 37.6 264.4 35.4713 264.4 32.702C264.4 29.9327 263.698 27.804 262.292 26.316C260.928 24.828 259.234 24.084 257.208 24.084C255.142 24.084 253.426 24.828 252.062 26.316C250.698 27.7627 250.016 29.8913 250.016 32.702C250.016 35.4713 250.678 37.6 252 39.088C253.364 40.576 255.059 41.32 257.084 41.32ZM301.893 15.032C305.943 15.032 309.167 16.3547 311.565 19C314.003 21.604 315.223 25.2 315.223 29.788V50H304.683V31.214C304.683 28.8993 304.083 27.1013 302.885 25.82C301.686 24.5387 300.074 23.898 298.049 23.898C296.023 23.898 294.411 24.5387 293.213 25.82C292.014 27.1013 291.415 28.8993 291.415 31.214V50H280.813V15.404H291.415V19.992C292.489 18.4627 293.936 17.264 295.755 16.396C297.573 15.4867 299.619 15.032 301.893 15.032Z" fill="white"/>
</svg>
